<?xml version="1.0" encoding="UTF-8" standalone="no"?>
<svg
   xmlns:dc="http://purl.org/dc/elements/1.1/"
   xmlns:cc="http://creativecommons.org/ns#"
   xmlns:rdf="http://www.w3.org/1999/02/22-rdf-syntax-ns#"
   xmlns="http://www.w3.org/2000/svg"
   xmlns:sodipodi="http://sodipodi.sourceforge.net/DTD/sodipodi-0.dtd"
   xmlns:inkscape="http://www.inkscape.org/namespaces/inkscape"
   version="1.1"
   x="0px"
   y="0px"
   viewBox="0 0 24 24"
   enable-background="new 0 0 100 100"
   xml:space="preserve"
   id="svg4596"
   inkscape:version="0.91 r13725"
   sodipodi:docname="walkie_talkie.svg"
   width="24"
   height="24"><metadata
     id="metadata5016"><rdf:RDF><cc:Work
         rdf:about=""><dc:format>image/svg+xml</dc:format><dc:type
           rdf:resource="http://purl.org/dc/dcmitype/StillImage" /><dc:title /></cc:Work></rdf:RDF></metadata><defs
     id="defs5014" /><sodipodi:namedview
     pagecolor="#ffffff"
     bordercolor="#666666"
     borderopacity="1"
     objecttolerance="10"
     gridtolerance="10"
     guidetolerance="10"
     inkscape:pageopacity="0"
     inkscape:pageshadow="2"
     inkscape:window-width="1323"
     inkscape:window-height="773"
     id="namedview5012"
     showgrid="true"
     inkscape:zoom="15.137742"
     inkscape:cx="5.2414052"
     inkscape:cy="15.704783"
     inkscape:window-x="55"
     inkscape:window-y="111"
     inkscape:window-maximized="0"
     inkscape:current-layer="g4168"
     inkscape:snap-page="true"><inkscape:grid
       type="xygrid"
       id="grid5813" /></sodipodi:namedview><text
     x="-12.68353"
     y="-294.63257"
     font-size="5px"
     font-weight="bold"
     id="text5008"
     style="font-weight:bold;font-size:5px;font-family:'Helvetica Neue', Helvetica, Arial-Unicode, Arial, Sans-serif;fill:#000000">Created by Linda Yuki Nakanishi</text>
<text
     x="-12.68353"
     y="-289.63257"
     font-size="5px"
     font-weight="bold"
     id="text5010"
     style="font-weight:bold;font-size:5px;font-family:'Helvetica Neue', Helvetica, Arial-Unicode, Arial, Sans-serif;fill:#000000">from the Noun Project</text>
<g
     inkscape:groupmode="layer"
     id="layer1"
     inkscape:label="dark_bg"
     style="display:none"
     sodipodi:insensitive="true"><rect
       style="fill:#0000ff;fill-rule:evenodd;stroke:none;stroke-width:1px;stroke-linecap:butt;stroke-linejoin:miter;stroke-opacity:1"
       id="rect3348"
       width="22"
       height="22"
       x="1"
       y="1" /></g><g
     inkscape:groupmode="layer"
     id="layer5"
     inkscape:label="scaled_white"
     style="display:none"
     transform="translate(0,-101)"
     sodipodi:insensitive="true"><path
       style="display:inline;fill:#ffffff;fill-opacity:1;fill-rule:evenodd;stroke:none;stroke-width:1px;stroke-linecap:butt;stroke-linejoin:miter;stroke-opacity:1"
       d="m 14.384766,1 -0.199219,6.0683594 c 0,0.007 0.0048,0.015237 0.0059,0.023437 l -3.492187,0 0,-1.265625 -1.3007815,0 0,1.265625 -1.2460937,0 c -1.107397,0 -2.0039063,0.874565 -2.0039063,1.953125 l 0,9.4472656 -0.4355469,0 c -0.1339682,0 -0.2167968,0.18959 -0.2167968,0.318359 l 0,3.191407 c 0,0.12974 0.082836,0.291015 0.2167968,0.291015 l 0.4355469,0 0,0.707032 12.3554685,0 0,-13.9550786 c 0,-1.07891 -0.900417,-1.953125 -2.007812,-1.953125 l -0.3125,0 c 3.51e-4,-0.007 0.0059,-0.015938 0.0059,-0.023437 L 15.990234,1 14.384766,1 Z m -2.003907,7.6621094 c 1.993525,0 3.609375,1.5755976 3.609375,3.5175786 0,1.9406 -1.61585,3.513671 -3.609375,3.513671 -1.994231,0 -3.6093746,-1.573071 -3.6093746,-3.513671 0,-1.942341 1.6151436,-3.5175786 3.6093746,-3.5175786 z m -2.341797,7.4882816 c 0.701976,0 1.271485,0.552871 1.271485,1.238281 0,0.68028 -0.569509,1.234375 -1.271485,1.234375 -0.7019744,0 -1.2675776,-0.554095 -1.2675776,-1.234375 0,-0.68541 0.5656032,-1.238281 1.2675776,-1.238281 z m 4.146485,0.388671 c 0.480355,0 0.86914,0.3811 0.869141,0.84961 0,0.46615 -0.388786,0.84375 -0.869141,0.84375 -0.480002,0 -0.871094,-0.3776 -0.871094,-0.84375 0,-0.46851 0.391092,-0.84961 0.871094,-0.84961 z m -5.6171876,3.654297 7.6210936,0 c 0.222328,0 0.402344,0.100197 0.402344,0.316407 0,0.21551 -0.180016,0.316406 -0.402344,0.316406 l -7.6210936,0 c -0.2209134,0 -0.4003907,-0.100956 -0.4003906,-0.316406 0,-0.2162 0.1794772,-0.316407 0.4003906,-0.316407 z m 0,1.683594 7.6210936,0 c 0.222328,0 0.402344,0.09983 0.402344,0.316406 0,0.2155 -0.180016,0.316407 -0.402344,0.316407 l -7.6210936,0 c -0.2209134,0 -0.4003907,-0.100947 -0.4003906,-0.316407 0,-0.21654 0.1794772,-0.316406 0.4003906,-0.316406 z"
       transform="translate(0,101)"
       id="rect4156"
       inkscape:connector-curvature="0" /></g><g
     transform="translate(0,-101)"
     style="display:inline"
     inkscape:label="scaled_white_joined_room"
     id="g4168"
     inkscape:groupmode="layer"><path
       id="path4170"
       d="m 16.879354,102 -0.199219,6.06836 c 0,0.007 0.0048,0.0152 0.0059,0.0234 l -3.492187,0 0,-1.26563 -1.300782,0 0,1.26563 -1.246094,0 c -1.1073972,0 -2.0039061,0.87456 -2.0039061,1.95312 l 0,9.44727 -0.4355469,0 c -0.1339682,0 -0.2167968,0.18959 -0.2167968,0.31836 l 0,3.1914 c 0,0.12974 0.082836,0.29102 0.2167968,0.29102 l 0.4355469,0 0,0.70703 12.3554691,0 0,-13.95508 c 0,-1.07891 -0.900417,-1.95312 -2.007812,-1.95312 l -0.3125,0 c 3.51e-4,-0.007 0.0059,-0.0159 0.0059,-0.0234 L 18.484822,102 l -1.605468,0 z m -2.003907,7.66211 c 1.993525,0 3.609375,1.5756 3.609375,3.51758 0,1.9406 -1.61585,3.51367 -3.609375,3.51367 -1.994231,0 -3.609375,-1.57307 -3.609375,-3.51367 0,-1.94234 1.615144,-3.51758 3.609375,-3.51758 z m -2.341797,7.48828 c 0.701976,0 1.271485,0.55287 1.271485,1.23828 0,0.68028 -0.569509,1.23438 -1.271485,1.23438 -0.701975,0 -1.267578,-0.5541 -1.267578,-1.23438 0,-0.68541 0.565603,-1.23828 1.267578,-1.23828 z m 4.146485,0.38867 c 0.480355,0 0.86914,0.3811 0.869141,0.84961 0,0.46615 -0.388786,0.84375 -0.869141,0.84375 -0.480002,0 -0.871094,-0.3776 -0.871094,-0.84375 0,-0.46851 0.391092,-0.84961 0.871094,-0.84961 z m -5.617188,3.6543 7.621094,0 c 0.222328,0 0.402344,0.1002 0.402344,0.31641 0,0.21551 -0.180016,0.3164 -0.402344,0.3164 l -7.621094,0 c -0.220913,0 -0.400391,-0.10095 -0.400391,-0.3164 0,-0.2162 0.179478,-0.31641 0.400391,-0.31641 z m 0,1.68359 7.621094,0 c 0.222328,0 0.402344,0.0998 0.402344,0.31641 0,0.2155 -0.180016,0.31641 -0.402344,0.31641 l -7.621094,0 c -0.220913,0 -0.400391,-0.10095 -0.400391,-0.31641 0,-0.21654 0.179478,-0.31641 0.400391,-0.31641 z"
       style="display:inline;fill:#ffffff;fill-opacity:1;fill-rule:evenodd;stroke:none;stroke-width:1px;stroke-linecap:butt;stroke-linejoin:miter;stroke-opacity:1"
       inkscape:connector-curvature="0" /><g
       id="g4184"
       transform="matrix(1.2271913,0,0,1.2271913,-1.5582152,-26.564428)"><path
         sodipodi:nodetypes="cc"
         inkscape:connector-curvature="0"
         id="path4172"
         d="m 6.5050508,111 c 0,0 -2,2 0,4"
         style="fill:none;fill-rule:evenodd;stroke:#ffffff;stroke-width:1px;stroke-linecap:butt;stroke-linejoin:miter;stroke-opacity:1" /><path
         style="fill:none;fill-rule:evenodd;stroke:#ffffff;stroke-width:1;stroke-linecap:butt;stroke-linejoin:miter;stroke-miterlimit:4;stroke-dasharray:none;stroke-opacity:1"
         d="m 5.0770549,109.42818 c 0,0 -3.5718202,3.57182 0,7.14364"
         id="path4174"
         inkscape:connector-curvature="0"
         sodipodi:nodetypes="cc" /></g></g><g
     inkscape:groupmode="layer"
     id="layer2"
     inkscape:label="offline_mark"
     style="display:none"><path
       style="display:inline;fill:none;fill-rule:evenodd;stroke:#ffffff;stroke-width:2.16329384;stroke-linecap:butt;stroke-linejoin:miter;stroke-miterlimit:4;stroke-dasharray:none;stroke-opacity:1"
       d="M 3.7665863,4.0713473 20.859721,20.004868"
       id="path4164"
       inkscape:connector-curvature="0" /></g><g
     inkscape:groupmode="layer"
     id="layer6"
     inkscape:label="original_walkie_talkie"
     style="display:none"
     sodipodi:insensitive="true"><path
       transform="translate(0,-101)"
       inkscape:connector-curvature="0"
       d="m 14.903404,110.98579 -0.202181,0 c 2.28e-4,-0.005 0.0037,-0.0107 0.0037,-0.0157 l -0.24531,-7.73172 0.06207,0 c 0.05363,0 0.09721,-0.0365 0.09721,-0.0819 l 0,-1.07321 c 0,-0.0456 -0.04336,-0.0828 -0.09721,-0.0828 l -0.927158,0 c -0.05431,0 -0.09767,0.0374 -0.09767,0.0828 l 0,1.07321 c 0,0.0454 0.04313,0.0819 0.09767,0.0819 l 0.06184,0 -0.245995,7.73172 c 0,0.005 0.0034,0.0103 0.0041,0.0157 l -2.254116,0 0,-0.83976 -0.839531,0 0,0.83976 -0.8041612,0 c -0.714937,0 -1.294782,0.57962 -1.294782,1.29455 l 0,6.26169 -0.280224,0 c -0.08649,0 -0.139656,0.12619 -0.139656,0.21154 l 0,2.11537 c 0,0.086 0.05317,0.19214 0.139656,0.19214 l 0.2802241,0 0,1.64391 c 0,0.71494 0.5798449,1.29455 1.294782,1.29455 l 5.3867841,0 c 0.714937,0 1.294554,-0.57961 1.294554,-1.29455 l 0,-10.42466 c 0,-0.71516 -0.579617,-1.29455 -1.294554,-1.29455 z m -2.657793,1.04126 c 1.287023,0 2.330333,1.04376 2.330333,2.33101 0,1.28634 -1.04331,2.32942 -2.330333,2.32942 -1.28748,0 -2.3305621,-1.04308 -2.3305621,-2.32942 0,-1.28748 1.0430821,-2.33101 2.3305621,-2.33101 z m 1.726299,5.7836 c 0,0.30899 -0.251471,0.55999 -0.561589,0.55999 -0.30989,0 -0.560905,-0.251 -0.560905,-0.55999 0,-0.31056 0.251015,-0.5625 0.560905,-0.5625 0.310118,0 0.561589,0.25194 0.561589,0.5625 z m -2.417276,0 c 0,0.45092 -0.366254,0.81831 -0.81945,0.81831 -0.453196,0 -0.8194502,-0.36739 -0.8194502,-0.81831 0,-0.45433 0.3662542,-0.82081 0.8194502,-0.82081 0.453196,0 0.81945,0.36648 0.81945,0.82081 z m 3.15024,4.50961 -4.9196682,0 c -0.142622,0 -0.258546,-0.0671 -0.258546,-0.20994 0,-0.14353 0.115924,-0.20971 0.258546,-0.20971 l 4.9196682,0 c 0.143535,0 0.25923,0.0662 0.25923,0.20971 0,0.14284 -0.115695,0.20994 -0.25923,0.20994 z m 0,-1.11519 -4.9196682,0 c -0.142622,0 -0.258546,-0.0671 -0.258546,-0.20994 0,-0.14353 0.115924,-0.20971 0.258546,-0.20971 l 4.9196682,0 c 0.143535,0 0.25923,0.0662 0.25923,0.20971 0,0.14284 -0.115695,0.20994 -0.25923,0.20994 z m 0,-1.11519 -4.9196682,0 c -0.142622,0 -0.258546,-0.0671 -0.258546,-0.20994 0,-0.14331 0.115924,-0.20971 0.258546,-0.20971 l 4.9196682,0 c 0.143535,0 0.25923,0.0664 0.25923,0.20971 0,0.14285 -0.115695,0.20994 -0.25923,0.20994 z"
       id="path5809"
       style="display:inline;fill:#000000;fill-opacity:1" /></g></svg>